<svg width="323" height="323" viewBox="0 0 323 323" fill="none" xmlns="http://www.w3.org/2000/svg">
<path opacity="0.2" d="M39.1207 148.669C27.2026 181.058 40.7476 215.161 74.8101 227.016C93.4602 233.511 115.817 230.546 134.279 237.619C155.018 245.565 176.06 256.482 200.798 254.346C227.094 252.061 253.428 235.47 267.879 213.056C285.466 185.775 271.123 160.793 263.633 134.914C232.991 28.9126 130.985 -20.0958 59.4663 117.974C53.4841 129.523 43.0621 137.963 39.1207 148.669Z" fill="#DBDDE5"/>
<path fill-rule="evenodd" clip-rule="evenodd" d="M120.377 173.161L105.938 133.379C105.731 132.8 106.039 132.158 106.624 131.947C125.607 125.181 146.998 118.889 165.284 111.159C166.101 110.648 166.742 111.153 167.094 112.118L189.78 170.059L195.94 187.034C196.148 187.614 195.846 188.262 195.261 188.467L151.851 203.935L134.929 209.966C134.345 210.177 133.697 209.872 133.483 209.293L120.377 173.161Z" fill="white"/>
<path fill-rule="evenodd" clip-rule="evenodd" d="M132.415 159.961L125.205 118.297C125.098 117.687 125.513 117.108 126.122 117.002L175.775 108.567L187.146 106.711C187.769 106.443 188.781 106.754 189.019 108.131L201.302 168.907L204.376 186.686C204.483 187.29 204.068 187.876 203.458 187.981L157.992 195.706L140.266 198.721C139.656 198.821 139.065 198.41 138.958 197.805L132.415 159.961Z" fill="white"/>
<path fill-rule="evenodd" clip-rule="evenodd" d="M146.326 147.677V187.733C146.326 188.374 146.853 188.904 147.501 188.904H166.265H194.042H198.034H214.39C215.037 188.904 215.565 188.374 215.565 187.733V168.913V116.928V116.385H203.622C202.472 116.385 200.083 116.547 200.083 113.962L200.058 102.406H147.501C146.853 102.406 146.326 102.929 146.326 103.571V113.569V117.799V147.677Z" fill="white"/>
<path fill-rule="evenodd" clip-rule="evenodd" d="M126.399 125.206C119.673 127.449 113.01 129.673 106.624 131.946C106.039 132.158 105.731 132.8 105.939 133.379L120.377 173.161L133.484 209.292C133.697 209.872 134.345 210.177 134.93 209.965L151.851 203.935L190.409 190.199L126.399 125.206Z" fill="#04A6C2"/>
<path fill-rule="evenodd" clip-rule="evenodd" d="M146.326 113.569L126.123 117.002C125.513 117.108 125.098 117.687 125.205 118.297L126.399 125.206L132.415 159.961L138.958 197.805C139.065 198.41 139.656 198.821 140.266 198.721L157.992 195.706L190.408 190.199L198.033 188.903H194.042L146.326 113.569Z" fill="#F3FBFD"/>
<path fill-rule="evenodd" clip-rule="evenodd" d="M215.565 168.913V116.928V116.385V116.205C215.565 115.868 215.42 115.812 214.899 115.308L202.006 103.123C201.396 102.55 201.296 102.406 200.938 102.406H200.058H147.501C146.853 102.406 146.326 102.929 146.326 103.571V187.732C146.326 188.374 146.853 188.904 147.501 188.904H214.39C215.037 188.904 215.565 188.374 215.565 187.732V168.913Z" fill="#F3FBFD"/>
<path fill-rule="evenodd" clip-rule="evenodd" d="M146.326 113.569L141.592 114.373V192.037C141.592 192.685 142.12 193.208 142.768 193.208H161.531H172.695L190.409 190.199L198.034 188.904H194.042H189.133H166.265H147.501C146.854 188.904 146.326 188.374 146.326 187.732C146.326 163.013 146.326 138.288 146.326 113.569Z" fill="#04A6C2"/>
<path fill-rule="evenodd" clip-rule="evenodd" d="M132.415 159.961L126.399 125.206C124.771 125.748 123.149 126.29 121.534 126.832L122.282 131.149L128.297 165.904L134.847 203.748C134.948 204.352 135.539 204.764 136.149 204.664L153.875 201.649L162.285 200.222L187.618 191.19L187.316 190.722L172.695 193.208L157.992 195.706L140.266 198.721C139.656 198.821 139.065 198.41 138.958 197.805L132.415 159.961Z" fill="#04A6C2"/>
<path fill-rule="evenodd" clip-rule="evenodd" d="M215.565 168.913V116.928V116.385C215.565 115.756 215.358 115.75 214.899 115.308L202.006 103.123C201.397 102.55 201.296 102.406 200.938 102.406H200.058H186.977C202.962 123.612 203.873 161.836 192.012 185.695C191.465 186.804 190.893 187.869 190.296 188.904H194.042H198.034H214.39C215.038 188.904 215.565 188.374 215.565 187.732V168.913H215.565Z" fill="#F3FBFD"/>
<path fill-rule="evenodd" clip-rule="evenodd" d="M200.083 113.962C200.083 116.547 202.471 116.385 203.622 116.385H215.565V116.205C215.565 115.868 215.42 115.812 214.899 115.308L202.006 103.123C201.397 102.55 201.296 102.406 200.938 102.406H200.058L200.083 113.962Z" fill="white"/>
<path fill-rule="evenodd" clip-rule="evenodd" d="M214.899 115.308L202.006 103.123C201.397 102.55 201.296 102.406 200.938 102.406H200.058L200.083 113.962C200.083 116.547 202.472 116.385 203.622 116.385H215.565V116.205C215.565 115.868 215.42 115.812 214.899 115.308Z" fill="#04A6C2"/>
<path d="M216.29 114.356C216.223 114.293 202.95 101.747 202.95 101.747C202.442 101.264 201.918 100.766 200.938 100.766H147.501C145.94 100.766 144.67 102.024 144.67 103.571V112.186L125.837 115.386C124.327 115.648 123.312 117.08 123.573 118.575L124.529 124.099C118.407 126.141 112.123 128.246 106.055 130.406C104.622 130.925 103.869 132.505 104.381 133.935L116.45 167.188C116.692 167.858 117.329 168.274 118.007 168.274C118.193 168.274 118.383 168.243 118.568 168.177C119.428 167.87 119.874 166.93 119.565 166.078L107.674 133.316C113.391 131.288 119.31 129.302 125.096 127.372L130.783 160.238L137.328 198.089C137.565 199.425 138.749 200.376 140.087 200.376C140.238 200.376 140.392 200.364 140.546 200.338L158.272 197.323L172.123 194.97L151.291 202.392L134.863 208.246L122.104 173.073C121.795 172.221 120.847 171.778 119.987 172.085C119.127 172.391 118.68 173.331 118.989 174.184L131.929 209.856C132.342 210.978 133.415 211.675 134.548 211.675C134.861 211.675 135.179 211.622 135.489 211.51L152.411 205.479L190.834 191.791L198.174 190.544H214.389C215.95 190.544 217.22 189.283 217.22 187.732V116.205C217.22 115.223 216.683 114.722 216.29 114.356ZM211.905 114.745H203.622L203.416 114.745C203.02 114.748 202.091 114.755 201.856 114.523C201.801 114.469 201.738 114.29 201.738 113.958L201.719 105.117L211.905 114.745ZM213.91 187.263H147.981V155.289C147.981 154.383 147.24 153.648 146.326 153.648C145.411 153.648 144.67 154.383 144.67 155.289V187.732C144.67 189.283 145.94 190.544 147.501 190.544H178.579L157.712 194.089L140.501 197.016L134.046 159.684L126.924 118.53L144.67 115.515V147.676C144.67 148.582 145.411 149.317 146.325 149.317C147.239 149.317 147.981 148.582 147.981 147.676V104.047H198.406L198.427 113.962C198.427 115.164 198.796 116.136 199.523 116.851C200.641 117.951 202.22 118.028 203.201 118.028C203.285 118.028 203.365 118.027 203.44 118.027L213.91 118.026V187.263Z" fill="#3F4254"/>
<path d="M204.942 127.881H157.615C156.701 127.881 155.96 127.146 155.96 126.24C155.96 125.334 156.701 124.6 157.615 124.6H204.942C205.856 124.6 206.597 125.334 206.597 126.24C206.597 127.146 205.856 127.881 204.942 127.881Z" fill="#3F4254"/>
<path d="M204.942 139.536H157.615C156.701 139.536 155.96 138.802 155.96 137.896C155.96 136.989 156.701 136.255 157.615 136.255H204.942C205.856 136.255 206.597 136.989 206.597 137.896C206.597 138.802 205.856 139.536 204.942 139.536Z" fill="#3F4254"/>
<path d="M204.942 151.191H157.615C156.701 151.191 155.96 150.457 155.96 149.551C155.96 148.645 156.701 147.91 157.615 147.91H204.942C205.856 147.91 206.597 148.645 206.597 149.551C206.597 150.457 205.856 151.191 204.942 151.191Z" fill="#3F4254"/>
<path d="M204.942 162.848H157.615C156.701 162.848 155.96 162.113 155.96 161.207C155.96 160.301 156.701 159.566 157.615 159.566H204.942C205.856 159.566 206.597 160.301 206.597 161.207C206.597 162.113 205.856 162.848 204.942 162.848Z" fill="#3F4254"/>
<path d="M204.942 174.503H157.615C156.701 174.503 155.96 173.768 155.96 172.862C155.96 171.956 156.701 171.222 157.615 171.222H204.942C205.856 171.222 206.597 171.956 206.597 172.862C206.597 173.768 205.856 174.503 204.942 174.503Z" fill="#3F4254"/>
</svg>
