<svg width="501" height="419" viewBox="0 0 501 419" fill="none" xmlns="http://www.w3.org/2000/svg">
<path opacity="0.95" d="M237.403 192.618H133.704C125.512 192.618 118.87 185.961 118.87 177.75V73.8125C118.87 65.6015 125.512 58.944 133.704 58.944H237.403C245.595 58.944 252.237 65.6015 252.237 73.8125V177.75C252.237 185.961 245.595 192.618 237.403 192.618Z" fill="url(#paint0_linear_313_1371)"/>
<path d="M216.427 162.184H154.68V165.241H216.427V162.184Z" fill="#96BFE6"/>
<path d="M207.681 171.817H163.426V174.873H207.681V171.817Z" fill="#96BFE6"/>
<path opacity="0.95" d="M439.228 320.043H291.653C282.002 320.043 274.176 312.202 274.176 302.526V122.82C274.176 113.147 281.999 105.303 291.653 105.303H439.228C448.879 105.303 456.704 113.144 456.704 122.82V302.526C456.704 312.202 448.879 320.043 439.228 320.043Z" fill="url(#paint1_linear_313_1371)"/>
<path d="M371.413 231.988H356.935V234.674H371.413V231.988Z" fill="#4598E6"/>
<path d="M386.211 256.61H301.974V261.813H386.211V256.61Z" fill="#96BFE6"/>
<path d="M370.093 281.591H301.974V286.793H370.093V281.591Z" fill="#96BFE6"/>
<path d="M341.908 269.102H301.974V274.305H341.908V269.102Z" fill="#96BFE6"/>
<path d="M408.252 126.72V129.348H423.688V143.869H426.31V126.72H408.252ZM303.425 143.869H306.047V129.348H321.483V126.72H303.425V143.869ZM423.688 218.794V233.321H408.252V235.949H426.31V218.794H423.688ZM306.047 218.794H303.425V235.949H321.483V233.321H306.047V218.794Z" fill="#4598E6"/>
<path d="M418.136 287.176C409.622 287.176 402.697 280.235 402.697 271.702C402.697 263.169 409.622 256.228 418.136 256.228C426.649 256.228 433.574 263.169 433.574 271.702C433.574 280.235 426.649 287.176 418.136 287.176ZM418.136 259.223C411.271 259.223 405.685 264.821 405.685 271.702C405.685 278.582 411.271 284.181 418.136 284.181C425 284.181 430.586 278.582 430.586 271.702C430.586 264.821 425 259.223 418.136 259.223Z" fill="#4598E6"/>
<path d="M417.152 277.792L410.138 270.762L412.252 268.646L417.152 273.557L424.022 266.672L426.135 268.788L417.152 277.792Z" fill="#4598E6"/>
<path opacity="0.12" d="M501 407.249C501 413.739 388.849 419 250.5 419C112.151 419 0 413.739 0 407.249C0 400.758 112.151 395.497 250.5 395.497C388.846 395.497 501 400.758 501 407.249Z" fill="#00A1D3"/>
<path opacity="0.95" d="M230.5 63.9416H140.606V141.246H230.5V63.9416Z" fill="url(#paint2_linear_313_1371)"/>
<path d="M219.891 111.003C216.93 103.154 209.817 99.5478 206.46 98.4251C205.264 98.0272 203.13 97.3278 200.879 96.5979C196.824 95.2852 192.394 93.8558 192.394 93.8558H178.402C178.402 93.8558 173.557 95.4828 168.409 97.2923C168.409 97.2973 168.404 97.2973 168.404 97.2973C163.661 98.9649 158.667 100.782 156.981 101.631C153.464 103.39 147.547 115.972 146.351 117.414C145.734 118.157 142.988 123.058 140.288 128.532H155.36C156.953 125.79 158.179 123.664 158.179 123.664C158.179 123.664 159.132 125.759 160.288 128.532H208.573C209.337 125.313 209.812 121.256 209.812 121.256C209.812 121.256 212.399 124.781 215.221 128.532H229.137C225.757 122.843 221.557 115.435 219.891 111.003Z" fill="#385369"/>
<path d="M187.064 55.3226C187.064 55.3226 198.004 57.051 196.338 74.2053C194.672 91.3596 185.018 89.9557 184.371 89.9379C183.726 89.9202 174.68 90.2496 173.974 69.3041C173.974 69.3066 173.666 53.8173 187.064 55.3226Z" fill="#EEA886"/>
<path d="M196.508 69.3598C196.508 69.3598 197.706 68.0775 198.146 69.375C198.586 70.6726 196.513 76.4633 196.437 76.7345C196.437 76.7345 196.217 77.2388 195.931 76.96C195.643 76.6863 196.508 69.3598 196.508 69.3598Z" fill="#EEA886"/>
<path d="M174.27 69.1444C174.27 69.1444 173.097 67.8393 172.632 69.1292C172.166 70.4191 174.111 76.2479 174.199 76.5216C174.199 76.5216 174.409 77.0285 174.7 76.7573C174.993 76.4836 174.27 69.1444 174.27 69.1444Z" fill="#EEA886"/>
<path d="M196.503 71.9929L194.937 74.0913C194.937 74.0913 194.98 69.4891 194.73 68.7694C194.48 68.0471 194.096 65.8448 193.883 65.3253C193.673 64.8058 184.49 62.2259 176.376 66.078C176.376 66.078 176.733 69.3852 175.957 69.6817C175.18 69.9757 175.56 75.0695 175.56 75.0695L174.273 73.6123C174.273 73.6123 172.303 60.414 172.788 59.0379C173.274 57.6618 174.826 49.3925 191.468 54.3014C191.468 54.3014 196.657 53.199 197.699 56.79C198.74 60.3785 196.503 71.9929 196.503 71.9929Z" fill="#434343"/>
<path d="M193.749 93.5492C193.744 93.534 192.346 92.8574 192.346 92.8574C191.663 91.3292 192.171 84.8846 192.171 84.8846C192.171 84.8846 178.237 81.3291 178.637 84.0483C179.034 86.765 177.436 93.0804 177.436 93.0804L170.288 96.6385C170.288 96.6385 177.903 117.135 186.657 114.49C195.41 111.846 198.715 95.8985 198.715 95.8985L193.749 93.5492Z" fill="#EEA886"/>
<path d="M178.836 87.0691C178.836 87.0691 181.082 89.9734 184.978 89.9734C187.542 89.9734 189.38 89.2536 191.934 86.7574C191.934 86.7574 190.826 91.4964 184.996 91.9374C184.993 91.9374 180.766 92.4747 178.836 87.0691Z" fill="#A77860"/>
<path d="M138.614 155.887C138.614 155.887 146.652 159.827 144.665 170.55C142.677 181.272 141.797 182.717 144.02 186.906C146.242 191.095 148.867 208.967 146.864 212.355C144.864 215.743 122.096 197.469 118.94 182.139C115.782 166.807 120.94 159.99 122.763 157.448C124.589 154.909 131.517 152.278 138.614 155.887Z" fill="#0E2D3D"/>
<path d="M135.58 404.717H137.403V396.106C137.403 396.106 140.976 398.493 143.219 401.795C145.461 405.097 148.543 404.816 153.239 404.603C157.934 404.393 157.724 402.497 157.302 399.828C156.882 397.16 152.116 396.316 150.574 395.895C149.031 395.475 145.532 389.43 144.407 387.958C142.872 385.951 142.06 384.025 142.06 384.025C142.06 384.025 141.186 380.444 136.839 384.025C132.495 387.606 133.757 394.489 134.248 395.122C134.738 395.753 135.58 404.717 135.58 404.717Z" fill="#163342"/>
<path d="M144.758 395.895C146.369 396.95 150.574 395.895 150.574 395.895C149.383 394.349 142.06 384.027 142.06 384.027C137.61 381.43 135.853 385.006 135.853 385.006C137.669 385.558 143.148 394.841 144.758 395.895Z" fill="#EEA886"/>
<path d="M191.61 237.018C191.61 237.018 194.528 237.578 195.524 236.205C196.371 235.036 198.308 234.139 198.905 233.863C199.701 233.493 201.727 231.44 202.202 232.444C202.677 233.448 199.029 235.987 198.369 236.674C197.709 237.36 201.946 237.662 202.68 238.331C203.41 238.997 202.51 246.005 199.628 245.46C196.743 244.915 194.02 242.424 193.494 242.429C192.968 242.434 191.38 242.115 191.38 242.115L191.61 237.018Z" fill="#EEA886"/>
<path d="M202.038 238.039C202.038 238.039 210.758 240.297 211.213 240.936C211.668 241.575 211.519 242.041 210.695 241.864C209.871 241.686 202.207 239.925 202.207 239.925C202.207 239.925 212.081 244.337 212.568 244.778C212.854 245.036 212.617 245.956 212.166 245.903C211.716 245.85 201.681 242.039 201.681 242.039C201.681 242.039 210.892 246.174 211.19 246.663C211.451 247.092 211.021 247.882 210.318 247.624C209.615 247.365 200.849 244.01 200.849 244.01C200.849 244.01 207.365 247.441 207.373 248.007C207.378 248.351 207.208 249.157 205.555 248.219C203.901 247.282 199.767 245.477 199.767 245.477L202.038 238.039Z" fill="#EEA886"/>
<path d="M111.972 405.305H113.092V398.985C113.092 398.985 115.087 401.04 115.997 404.061C116.908 407.082 120.169 407.976 125.145 407.837C130.121 407.697 130.189 405.728 129.77 402.778C129.35 399.828 125.145 398.283 125.145 398.283C123.254 396.597 118.559 389.608 118.559 389.608C118.559 389.608 115.545 388.799 113.181 390.713C110.817 392.626 111.552 396.947 111.621 398.07C111.691 399.195 111.972 405.305 111.972 405.305Z" fill="#163342"/>
<path d="M115.406 254.728C115.406 254.728 109.476 262.452 107.868 271.618C106.26 280.785 108.819 311.545 108.748 316.077C108.677 320.608 104.473 331.88 105.315 340.413C106.157 348.946 109.474 391.417 109.474 391.417L118.559 389.61C118.559 389.61 118.033 346.313 118.559 342.729C119.085 339.148 120.139 326.092 120.349 324.617C120.559 323.142 133.694 284.414 133.694 277.807C133.694 271.195 129.701 243.947 115.406 254.728Z" fill="#1D3B54"/>
<path d="M145.186 257.746C145.186 257.746 154.925 295.004 156.081 300.167C157.236 305.329 158.913 309.586 158.913 311.779C158.913 316.865 157.026 325.03 157.026 325.03L144.657 384.319H132.877C132.877 384.319 139.441 348.748 139.618 341.794C139.795 334.822 145.148 324.924 144.098 321.974C143.047 319.024 127.176 284.997 127.176 284.997C127.176 284.997 115.16 246.93 145.186 257.746Z" fill="#1D3B54"/>
<path d="M125.145 398.283L118.559 389.608L113.181 390.713C113.181 390.713 114.627 394.595 117.241 397.515C120.339 400.976 125.145 398.283 125.145 398.283Z" fill="#EEA886"/>
<path d="M141.163 194.43C141.163 194.43 145.178 194.81 148.212 198.069C151.246 201.328 154.093 206.524 154.89 208.262C155.684 210.001 166.824 226.106 167.403 226.468C167.982 226.83 173.58 228.706 177.292 229.958C183.016 231.889 194.495 236.07 194.495 236.07L192.217 243.303C192.217 243.303 170.637 236.225 165.231 234.889C158.622 233.257 143.408 213.693 143.408 213.693C143.408 213.693 132.06 200.368 141.163 194.43Z" fill="#285173"/>
<path d="M134.157 191.607C134.157 191.607 139.358 194.068 141.165 194.43C142.971 194.793 149.98 203.916 151.208 207.246C152.437 210.576 151.208 215.573 148.68 221.438C146.152 227.302 148.536 229.258 147.38 235.123C146.225 240.987 146.597 262.931 146.814 266.187C147.031 269.446 112.999 274.386 106.281 268.448C106.281 268.448 110.829 248.673 116.215 243.029C117.38 241.808 117.256 233.675 116.463 231.648C115.669 229.621 106.71 214.486 106.71 214.486C106.71 214.486 106.053 199.136 109.962 196.095C113.358 193.452 122.612 192.509 124.273 191.931C125.927 191.351 130.761 191.1 134.157 191.607Z" fill="#00A1D3"/>
<path d="M136.639 185.591C136.639 185.591 136.485 187.025 136.306 188.966C136.237 189.734 136.162 190.581 136.091 191.45C135.883 194.05 135.719 196.843 135.818 198.27C135.818 198.27 130.412 203.7 124.265 191.934C124.265 191.934 126.849 187.081 124.902 180.477C122.958 173.867 136.639 185.591 136.639 185.591Z" fill="#EEA886"/>
<path d="M151.77 223.602C151.77 223.602 153.072 214.927 151.686 209.653C151.686 209.653 151.686 214.19 149.206 220.629L151.77 223.602Z" fill="#183C59"/>
<path d="M120.114 192.768C120.114 192.768 123.83 203.774 134.04 202.965C144.248 202.154 138.88 193.672 138.88 193.672C138.88 193.672 136.336 192.21 135.621 192.073C134.905 191.936 124.334 191.802 124.334 191.802L120.114 192.768Z" fill="#EEA886"/>
<path d="M138.88 193.67C138.88 193.67 144.227 208.493 144.227 223.602C144.227 238.711 144.657 263.321 146.526 271.094C148.392 278.866 153.706 302.901 153.706 302.901L157.871 300.742C157.871 300.742 147.858 262.381 147.102 259.616C146.346 256.849 147.676 227.629 148.394 225.181C149.112 222.733 152.167 211.843 151.691 208.822C151.092 205.013 147.537 199.377 141.792 194.531L138.88 193.67Z" fill="#285173"/>
<path d="M122.129 192.304C122.129 192.304 125.451 202.968 127.135 216.628C128.819 230.287 121.967 293.689 117.37 308.081L99.5651 305.202C99.5651 305.202 103.398 260.386 108.602 252.231C113.805 244.076 115.461 236.859 109.843 219.836C104.228 202.813 112.306 194.382 112.306 194.382C112.306 194.382 120.569 192.481 122.129 192.304Z" fill="#285173"/>
<path d="M141.34 237.53L119.749 275.012L95.7495 261.124L116.402 223.1L141.34 237.53Z" fill="#616161"/>
<path d="M138.738 238.82L119.562 272.107L98.2477 259.773L116.589 226.004L138.738 238.82Z" fill="#E0CEC7"/>
<path d="M131.664 235.83L133.009 233.493L124.392 228.508L122.71 230.65L131.664 235.83Z" fill="#616161"/>
<path d="M130.634 262.424C130.634 262.424 129.653 262.429 129.224 262.221C129.224 262.221 128.47 261.783 127.914 261.504C127.737 261.415 127.583 261.344 127.476 261.306C127.036 261.154 126.025 260.952 125.069 260.285C124.116 259.621 120.736 255.698 120.736 255.698L122.331 253.265L123.502 250.774C123.502 250.774 130.599 251.233 131.56 251.75C131.653 251.8 131.744 251.854 131.825 251.912C132.597 252.426 132.953 253.136 133.327 253.453C133.464 253.569 134.743 254.826 134.698 255.361C134.637 256.104 134.293 256.593 133.848 256.836C133.848 256.836 133.664 258.283 132.953 258.96C132.953 258.96 132.827 260.3 131.701 260.888C131.704 260.883 131.423 262.229 130.634 262.424Z" fill="#EEA886"/>
<path d="M116.005 194.43C116.005 194.43 109.449 192.547 105.691 199.788C101.934 207.028 101.954 210.117 101.451 213.655C100.976 216.993 98.8368 226.108 98.6194 227.051C98.4019 227.991 93.5549 239.218 95.7774 243.141C98.0125 247.084 120.703 258.694 120.559 259.56C120.414 260.43 124.488 250.784 124.488 250.784C124.488 250.784 115.305 245.655 113.803 244.076C111.36 241.512 106.207 238.747 107.267 235.564C108.511 231.826 112.245 219.213 113.112 217.365C113.982 215.52 121.532 196.784 116.005 194.43Z" fill="#285173"/>
<path d="M137.446 157.078C137.446 157.078 149.117 160.755 142.781 180.943C136.445 201.131 120.503 178.604 122.172 166.302C123.84 154.001 137.446 157.078 137.446 157.078Z" fill="#EEA987"/>
<path d="M143.977 168.857C143.977 168.857 138.177 174.562 128.47 175.274C128.47 175.274 124.741 179.658 124.452 181.379C124.452 181.379 115.792 166.584 126.437 157.714C137.084 148.847 147.888 165.203 143.977 168.857Z" fill="#0E2D3D"/>
<path d="M128.586 175.677C128.51 174.207 127.608 170.864 125.428 171.799C123.249 172.734 125.562 179.544 127.006 179.126C127.009 179.126 128.763 179.154 128.586 175.677Z" fill="#EEA987"/>
<path d="M136.306 188.966C136.237 189.734 136.162 190.581 136.091 191.45C136.091 191.45 130.938 191.143 127.497 183.462C127.722 183.796 131.494 189.354 136.306 188.966Z" fill="#A77860"/>
<path opacity="0.95" d="M351.124 97.8929H277.532C270.796 97.8929 265.337 92.4215 265.337 85.6703V21.6678C265.337 14.9166 270.796 9.44513 277.532 9.44513H351.124C357.86 9.44513 363.319 14.9166 363.319 21.6678V85.6703C363.321 92.4215 357.86 97.8929 351.124 97.8929Z" fill="url(#paint3_linear_313_1371)"/>
<path d="M317.845 81.1644H310.073V82.6064H317.845V81.1644Z" fill="#4598E6"/>
<path d="M320.985 1.69794C320.985 1.69794 327.246 5.14452 325.258 13.619C323.271 22.0936 322.515 23.2112 324.131 26.6349C325.746 30.0587 327.165 44.4076 325.443 47.0331C323.721 49.6586 306.255 34.2301 304.315 21.8858C302.373 9.54144 306.743 4.30061 308.293 2.34417C309.842 0.387731 315.461 -1.4496 320.985 1.69794Z" fill="#344052"/>
<path d="M332.74 71.7319H326.037C325.714 68.4171 325.413 66.111 325.476 65.7688C325.574 65.2062 318.806 47.4082 318.174 45.9358C317.537 44.4685 315.056 40.5201 314.733 36.8024C314.404 33.0846 319.241 31.5844 319.241 31.5844C325.769 32.7577 327.979 41.8075 327.979 41.8075C327.979 41.8075 330.72 60.1605 332.105 65.3253C332.462 66.6507 332.654 68.9899 332.74 71.7319Z" fill="#EEA886"/>
<path d="M329.367 46.2297L319.385 50.4493C319.385 50.4493 310.209 27.6258 317.901 30.1753C325.567 32.7146 329.018 37.4891 329.367 46.2297Z" fill="#EB4747"/>
<path d="M327.145 56.975C326.854 59.2407 325.66 67.2666 325.926 69.4359C325.971 69.7933 326.118 70.6169 326.34 71.7345H302.27C302.909 69.4435 303.493 67.4161 303.845 66.2377C305.013 62.3527 303.896 61.3111 303.304 58.2016C303.074 56.9852 302.265 54.6739 301.385 52.0611C301.089 51.1893 300.786 50.2796 300.495 49.3672C299.435 46.0778 298.945 42.7148 298.641 40.7558C297.19 31.4754 304.31 30.5834 304.31 30.5834C306.957 30.0943 311.579 28.6624 311.579 28.6624L318.821 30.1728C318.821 30.1728 319.511 30.4313 320.515 31.1764C320.515 31.1764 320.52 31.1764 320.52 31.1815C321.003 31.5388 321.562 32.0076 322.148 32.6133C322.94 33.4268 324.515 35.7583 326.088 38.3204C326.568 39.1061 327.051 39.9119 327.506 40.7052C328.978 43.2597 330.024 45.32 329.992 47.6414C329.964 49.9273 327.438 54.7094 327.145 56.975Z" fill="#EB4747"/>
<path d="M318.821 30.1753C318.821 30.1753 323.357 37.9453 321.671 38.5282C319.984 39.1086 311.092 37.1471 307.617 29.8053C307.617 29.8028 313.456 27.1444 318.821 30.1753Z" fill="#EEA886"/>
<path d="M318.171 33.7233C318.171 33.7233 314.141 35.4314 310.492 29.8053C310.492 29.8053 311.473 23.4165 309.4 19.7216C307.327 16.0266 318.459 24.1514 318.459 24.1514C318.459 24.1514 318.28 24.9142 318.093 26.0369C317.997 26.6122 317.898 27.2812 317.825 27.9933C317.761 28.5864 317.713 29.2072 317.693 29.8256C317.648 31.2651 317.749 32.6893 318.171 33.7233Z" fill="#EEA886"/>
<path d="M308.166 42.4283C307.337 46.7062 301.385 52.0636 301.385 52.0636C301.092 51.1892 300.788 50.282 300.495 49.3722C304.601 46.7442 308.166 42.4283 308.166 42.4283Z" fill="#393D63"/>
<path d="M306.672 45.8319C306.295 47.3905 304.558 63.1763 304.748 63.7161C304.859 64.0253 305.698 67.6772 306.54 71.7345H298.77C297.974 69.1191 297.504 66.9473 297.617 65.7182C298.113 60.3937 296.313 43.4193 296.313 43.4193C296.313 43.4193 294.7 33.1506 303.2 31.8682C303.2 31.8682 308.222 32.5297 308.525 36.2474C308.831 39.9677 307.051 44.2759 306.672 45.8319Z" fill="#EEA886"/>
<path d="M295.686 48.0114L306.234 50.4823C306.234 50.4823 314.604 34.1972 307.066 31.222C299.122 28.0871 293.782 39.1288 295.686 48.0114Z" fill="#EB4747"/>
<path d="M320.009 2.60013C320.009 2.60013 329.177 5.97322 323.367 21.83C317.557 37.6893 305.693 19.1234 307.486 9.37925C309.276 -0.364939 320.009 2.60013 320.009 2.60013Z" fill="#EEA987"/>
<path d="M324.773 12.2404C324.773 12.2404 319.934 16.5689 312.169 16.7716C312.169 16.7716 310.353 21.2066 310.06 22.5675C310.06 22.5675 302.389 9.36403 311.208 2.69388C320.03 -3.97626 328.03 9.473 324.773 12.2404Z" fill="#344052"/>
<path d="M313.218 17.722C313.213 16.5487 312.619 13.8472 310.846 14.5111C309.074 15.1751 310.662 20.6922 311.83 20.4134C311.83 20.4134 313.228 20.5021 313.218 17.722Z" fill="#EEA987"/>
<path d="M317.703 29.557C313.395 28.3633 311.729 24.2452 311.678 24.1083C315.183 28.6472 317.825 27.9933 317.825 27.9933C317.764 28.5863 317.759 28.9563 317.703 29.557Z" fill="#A77860"/>
<path d="M337.617 25.4489V26.8605H345.903V34.6558H347.311V25.4489H337.617ZM281.344 34.6558H282.753V26.8605H291.039V25.4489H281.344V34.6558ZM345.906 74.8769V82.6748H337.62V84.0863H347.314V74.8769H345.906ZM282.753 74.8769H281.344V84.0863H291.039V82.6748H282.753V74.8769Z" fill="#4598E6"/>
<path d="M190.743 147.247H180.364V149.173H190.743V147.247Z" fill="#4598E6"/>
<path d="M216.662 72.8293V74.7122H227.731V85.1255H229.61V72.8293H216.662ZM141.496 85.1255H143.378V74.7122H154.447V72.8293H141.499V85.1255H141.496ZM227.729 138.852V149.267H216.662V151.15H229.61V138.852H227.729ZM143.378 138.852H141.496V151.153H154.445V149.267H143.375V138.852H143.378Z" fill="#4598E6"/>
<path d="M417.425 217.591H408.646C408.487 217.238 408.356 216.932 408.249 216.686C405.645 210.52 392.216 196.381 392.216 196.381C392.216 196.381 392.216 196.389 392.216 196.412C392.216 196.412 392.209 196.42 392.209 196.427C392.209 196.427 392.209 196.435 392.209 196.442C392.201 196.465 392.194 196.48 392.186 196.503C392.179 196.534 392.171 196.572 392.156 196.62C392.148 196.643 392.141 196.673 392.141 196.696C392.133 196.719 392.125 196.734 392.118 196.757C391.567 198.817 388.864 209.081 387.511 217.588H328.098C327.961 216.8 327.799 216.047 327.617 215.353C327.074 213.239 326.707 211.149 326.472 209.195C326.464 209.096 326.449 209.002 326.442 208.903C326.396 208.543 326.358 208.183 326.328 207.831C325.817 202.486 326.199 198.389 326.229 197.973C326.062 198.333 324.861 202.745 323.289 208.191C322.424 211.179 321.448 214.479 320.477 217.588H306.447L324.052 166.678C324.442 166.371 329.011 164.159 332.343 162.564C335.744 160.94 339.847 158.558 343.554 156.52C345.45 155.479 347.238 154.536 348.788 153.824L349.026 153.717V153.71C351.584 152.539 353.289 151.764 353.289 151.764C353.289 151.764 353.289 151.764 353.296 151.764C353.357 151.756 353.761 151.718 354.404 151.657C357.979 151.312 369.076 150.271 372.788 150.055C373.094 150.033 373.354 150.025 373.552 150.017C373.721 150.01 373.85 150.01 373.926 150.017C374.391 150.048 376.684 150.844 379.688 151.994C379.802 152.032 379.918 152.078 380.032 152.123C380.179 152.177 380.315 152.23 380.459 152.283C380.72 152.382 380.988 152.483 381.253 152.59C381.789 152.805 382.345 153.018 382.904 153.241C383.096 153.317 383.294 153.393 383.493 153.472C389.506 155.861 396.399 158.824 398.034 160.005C399.119 160.778 402.49 167.144 406.393 175.018C410.593 188.518 415.736 207.988 417.425 217.591Z" fill="#DECBC4"/>
<path d="M373.824 148.294C373.665 156.3 358.204 160.679 358.204 160.679C358.204 160.679 351.736 152.552 353.281 151.774C353.888 151.467 354.133 150.256 354.209 148.895C354.28 147.6 354.196 146.17 354.12 145.263C354.075 144.698 354.032 144.333 354.032 144.333C354.032 144.333 356.242 141.996 359.051 139.214C363.964 134.346 370.715 128.111 370.725 130.592C370.725 130.724 370.707 130.881 370.666 131.064C369.483 136.642 373.824 148.294 373.824 148.294Z" fill="#EEA886"/>
<path d="M367.87 136.563C367.84 136.611 367.182 137.595 366.062 139.006C363.688 141.999 359.225 146.916 354.209 148.89C354.28 147.595 354.196 146.165 354.12 145.258C353.607 145.245 353.094 145.185 352.586 145.073C353.961 142.666 355.949 140.139 355.949 140.139L359.053 139.209L367.87 136.563Z" fill="#A77860"/>
<path d="M370.838 130.696C369.501 133.613 368.232 135.727 367.87 136.566C367.87 136.566 367.87 136.566 367.87 136.568C367.635 137.113 366.998 138.003 366.065 139.009C363.516 141.761 358.78 145.39 354.123 145.263C353.61 145.25 353.096 145.19 352.588 145.078C350.707 144.668 348.487 143.791 347.266 141.393C337.62 122.463 344.603 106.981 344.603 106.981C344.603 106.981 370.983 99.5048 375.109 107.462C378.002 113.045 373.981 123.844 370.838 130.696Z" fill="#EEA886"/>
<path d="M344.601 106.978C344.601 106.978 342.151 106.841 341.546 102.186C340.947 97.5863 342.158 96.3116 342.158 96.3116C342.158 96.3116 353.048 91.7423 356.96 91.1493C360.871 90.5563 370.487 89.9836 372.74 92.5685C372.74 92.5685 378.216 91.2938 379.708 100.404C382.075 114.86 371.642 128.897 371.642 128.897C371.642 128.897 371.731 119.452 369.653 118.202C367.574 116.951 365.782 119.926 365.782 119.926L361.531 120.689C361.531 120.689 367.986 106.717 360.242 106.2C352.497 105.683 349.033 107.789 344.601 106.978Z" fill="#E8734D"/>
<path d="M365.898 116.162C366.302 112.001 373.81 110.412 373.306 114.774C372.803 119.135 369.107 123.324 367.4 123.177C365.691 123.03 365.589 119.335 365.898 116.162Z" fill="#EEA886"/>
<path d="M409.837 175.413C407.392 167.562 405.276 161.351 404.335 160.676C402.692 159.498 389.67 155.904 383.488 153.477C383.288 153.401 383.091 153.325 382.899 153.246C382.34 153.023 381.784 152.81 381.248 152.595C380.98 152.488 380.712 152.387 380.454 152.288C380.31 152.235 380.171 152.182 380.027 152.128C379.913 152.083 379.797 152.037 379.683 151.999C379.675 152.007 379.668 152.022 379.653 152.03C379.101 152.651 376.244 155.904 372.828 160.775C366.439 169.873 358.118 184.618 359.395 198.229C359.807 202.595 360.313 208.868 361.16 215.905C361.22 216.465 361.288 217.023 361.367 217.591H390.191C390.543 210.224 391.17 200.517 392.118 196.759C392.125 196.736 392.133 196.721 392.141 196.698C392.141 196.675 392.148 196.645 392.156 196.622C392.163 196.584 392.178 196.546 392.186 196.506C392.194 196.483 392.201 196.468 392.209 196.445C392.209 196.437 392.209 196.43 392.209 196.43C392.209 196.422 392.216 196.414 392.216 196.414C392.216 196.414 399.192 207.345 399.551 217.591H417.693C416.806 208.072 414.032 188.885 409.837 175.413Z" fill="#3C4145"/>
<path d="M348.902 153.923C348.902 153.923 346.725 161.183 343.913 179.313C343.913 179.313 343.913 179.313 343.913 179.321C343.815 179.927 343.721 180.548 343.622 181.181C343.615 181.25 343.6 181.326 343.592 181.404C343.524 181.817 343.463 182.248 343.4 182.676C343.392 182.73 343.385 182.775 343.377 182.828C343.332 183.112 343.286 183.404 343.248 183.7C343.142 184.412 343.033 185.147 342.927 185.89C341.873 193.287 340.467 205.046 339.038 217.591H327.645C327.026 214.106 326.447 210.936 326.492 208.759C326.469 208.804 326.454 208.858 326.439 208.906C325.529 211.432 324.528 214.182 323.511 216.856C323.42 217.102 323.329 217.345 323.236 217.591H303.597L323.16 166.297C323.549 165.991 328.586 163.272 331.916 161.688C335.392 160.025 339.787 157.98 343.683 156.181C345.546 155.314 347.296 154.511 348.78 153.829L348.902 153.923Z" fill="#3C4145"/>
<path d="M375.395 171.86L367.868 176.118L371.084 179.404L364.024 217.593H361.364C360.386 209.874 359.827 202.943 359.392 198.231C357.428 177.184 378.381 153.449 379.68 152.002C380.689 152.384 381.774 152.805 382.897 153.251L375.395 171.86Z" fill="#51565C"/>
<path d="M349.018 153.722C349.018 153.722 346.206 162.922 342.935 185.89C341.88 193.28 340.467 205.046 339.038 217.591H337.931L336.472 181.508L340.055 177.618L336.869 173.626L343.686 156.178C345.549 155.311 347.299 154.508 348.783 153.826L349.018 153.722Z" fill="#51565C"/>
<path d="M380.062 152.09L373.825 148.294C373.825 148.294 373.65 151.723 358.204 160.679L362.591 173.064L380.062 152.09Z" fill="#F5E2D9"/>
<path d="M354.095 150.02C354.095 150.02 354.338 153.72 358.204 160.676L349.643 171.863L349.018 153.72L354.095 150.02Z" fill="#F5E2D9"/>
<path d="M358.227 160.676C358.227 160.676 359.885 167.329 359.289 169.191C359.289 169.191 355.64 170.522 353.018 168.86C353.018 168.86 354.874 164.202 358.227 160.676Z" fill="#D44040"/>
<path d="M356.216 183.295C354.467 195.244 354.467 207.329 355.117 217.591H347.804C347.706 216.144 347.612 214.633 347.521 213.057C346.161 189.397 354.505 168.259 354.505 168.259L358.226 167.324C358.224 167.326 357.025 177.78 356.216 183.295Z" fill="#D44040"/>
<path d="M326.727 198.036C326.449 203.713 326.49 208.754 326.49 208.754V208.756C326.487 208.784 326.482 208.936 326.469 209.19C326.457 209.093 326.447 209 326.434 208.906C325.529 211.432 324.522 214.18 323.511 216.853C323.276 213.754 323.215 210.867 323.284 208.191C323.691 192.274 328.684 183.928 328.684 183.928C327.539 186.706 326.99 192.659 326.727 198.036Z" fill="#2D3133"/>
<path d="M258.373 217.659L235.008 230.533L211.544 193.523L239.923 183.642L258.373 217.659Z" fill="#292C47"/>
<path d="M256.892 216.549L235.041 228.587L213.097 193.976L239.638 184.737L256.892 216.549Z" fill="white"/>
<path d="M264.894 210.077C264.894 210.077 260.829 208.128 259.044 207.109C257.259 206.09 252.667 204.691 252.295 204.359C251.924 204.027 238.682 203.209 237.881 202.514C237.077 201.82 236.298 204.141 239.729 204.897C243.16 205.649 247.936 207.492 248.197 208.837C248.457 210.181 244.672 210.5 244.288 211.607C243.903 212.715 244.396 212.466 244.937 212.705C245.481 212.943 249.441 210.743 251.183 211.367C252.925 211.99 255.587 211.126 256.922 211.585C258.257 212.043 264.748 214.233 264.748 214.233L264.894 210.077Z" fill="#EEA886"/>
<path d="M233.868 225.89C233.868 225.89 230.452 222.809 228.798 221.519C227.145 220.229 224.042 216.437 223.585 216.217C223.127 215.997 217.203 203.809 216.237 203.32C215.271 202.831 217.15 201.191 219.195 204.139C221.241 207.086 224.831 210.88 226.197 210.604C227.562 210.327 226.386 206.627 227.279 205.834C228.171 205.041 228.128 205.601 228.563 206.022C228.998 206.442 228.472 211.04 229.739 212.441C231.003 213.842 231.228 216.693 232.179 217.776C233.13 218.858 237.714 224.137 237.714 224.137L233.868 225.89Z" fill="#EEA886"/>
<path d="M307.448 390.621C307.448 390.621 308.186 395.764 308.28 396.534C308.373 397.307 316.502 396.08 316.502 396.08L317.16 389.96C317.157 389.96 308.464 389.897 307.448 390.621Z" fill="#424773"/>
<path d="M308.191 395.883C308.191 395.883 305.615 398.982 303.124 400.33C300.634 401.681 296.72 402.216 295.246 403.615C294.181 404.623 291.372 408.967 301.719 408.881C312.065 408.792 317.053 409.494 318.161 407.829C319.268 406.164 316.558 395.535 316.558 395.535C316.558 395.535 314.108 396.417 308.191 395.883Z" fill="#292C47"/>
<path d="M249.203 390.621C249.203 390.621 249.941 395.764 250.035 396.534C250.128 397.307 258.257 396.08 258.257 396.08L258.915 389.96C258.915 389.96 250.219 389.897 249.203 390.621Z" fill="#424773"/>
<path d="M249.949 395.883C249.949 395.883 247.372 398.982 244.882 400.33C242.391 401.681 233.223 402.791 231.752 404.187C230.687 405.196 228.92 409.258 243.479 408.878C253.82 408.607 258.813 409.492 259.921 407.827C261.028 406.162 258.318 395.533 258.318 395.533C258.318 395.533 256.007 396.478 249.949 395.883Z" fill="#292C47"/>
<path d="M300.717 258.506C300.717 258.506 308.356 270.67 307.787 281.664C307.218 292.66 310.555 304.662 311.703 316.148C312.983 328.953 318.216 359.265 318.406 366.115C318.596 372.965 317.594 394.836 317.594 394.836L307.117 395.077C307.117 395.077 298.315 342.083 296.037 336.675C293.759 331.267 282.454 292.718 282.075 288.392C281.691 284.066 300.717 258.506 300.717 258.506Z" fill="#292C47"/>
<path d="M260.508 260.156C260.508 260.156 254.75 290.291 253.992 297.019C253.233 303.748 252.725 329.584 252.346 333.791C251.967 337.998 249.812 388.827 247.787 395.077H261.183C261.183 395.077 271.466 358.125 271.466 340.641C271.466 323.157 279.41 302.632 284.54 291.097C289.668 279.561 301.408 279.287 304.561 257.885C304.561 257.885 264.776 253.367 260.508 260.156Z" fill="#292C47"/>
<path d="M287.971 156.244C287.971 156.244 277.719 152.405 272.993 160.228C268.265 168.051 268.722 183.71 273.888 185.636C279.056 187.562 286.818 186.554 289.463 181.66C292.108 176.766 294.497 169.691 294.384 164.962C294.267 160.233 290.662 157.61 287.971 156.244Z" fill="#EEA886"/>
<path d="M275.001 185.994C275.001 185.994 275.428 188.769 274.722 190.135C274.017 191.501 288.004 191.536 288.004 191.536C288.004 191.536 289.14 184.103 291.291 177.821C293.445 171.541 275.001 185.994 275.001 185.994Z" fill="#EEA886"/>
<path d="M291.291 177.823C291.291 177.823 290.325 179.42 286.386 178.799C282.444 178.181 277.638 172.924 275.992 172.347C274.346 171.769 274.33 170.801 274.33 170.801L273.301 172.309L271.554 172.42C271.554 172.42 273.147 167.719 270.743 165.803C268.338 163.885 273.238 150.588 285.875 155.015C285.875 155.015 295.582 157.696 295.228 163.231C294.877 168.763 293.463 175.066 291.291 177.823Z" fill="#3A3F47"/>
<path d="M273.891 189.97C273.891 189.97 273.936 187.36 275.117 187.109C276.298 186.858 288.151 185.715 289.602 186.288V189.329C289.6 189.329 286.808 191.052 273.891 189.97Z" fill="#E2D2CA"/>
<path d="M274.593 168.791C274.816 167.864 277.17 165.21 278.07 168.051C278.973 170.892 276.707 174.711 275.446 174.384C274.181 174.055 274.032 171.143 274.593 168.791Z" fill="#EEA886"/>
<path d="M226.846 220.824C226.851 220.822 226.859 220.822 226.867 220.822C226.783 220.857 226.773 220.86 226.846 220.824Z" fill="#323657"/>
<path d="M309.334 287.483C309.334 287.483 303.046 289.338 292.325 290.524C281.605 291.71 254.816 290.095 254.647 288.826C254.477 287.556 260.409 241.552 260.073 239.182C259.736 236.813 259.554 228.371 259.554 228.371C259.423 230.685 257.071 240.133 254.232 245.282C253.205 247.142 249.767 252.976 248.108 251.648C240.083 245.227 227.656 221.025 226.867 220.819C227.529 220.53 232.755 218.118 233.489 217.874C234.131 217.659 239.921 223.805 243.428 227.614C244.993 229.311 246.103 230.546 246.103 230.546C247.117 228.262 250.806 213.87 251.951 208.888C254.538 197.656 254.141 197.187 254.141 197.187C261.984 194.81 273.891 189.97 273.891 189.97L289.6 189.329C289.6 189.329 304.017 192.509 309.696 195.081C310.234 195.325 310.237 207.973 311.716 211.29L307.008 221.245C307.008 221.245 304.29 240.964 303.724 249.735C303.466 253.757 309.334 287.483 309.334 287.483Z" fill="#00A1D3"/>
<path d="M312.368 227.71C311.959 229.038 310.095 230.158 308.887 230.65C308.113 230.964 307.246 231.065 306.371 230.903L305.756 230.789L294.99 228.787C294.99 228.787 292.634 201.597 309.698 195.081C310.148 195.228 316.136 215.535 312.368 227.71Z" fill="#00A1D3"/>
<path d="M308.887 230.647C308.113 230.961 307.246 231.063 306.371 230.9L305.756 230.786L306.818 216.891L308.887 230.647Z" fill="#02819E"/>
<path d="M246.106 230.546L244.791 236.131C244.791 236.131 243.362 230.528 243.43 227.616C244.993 229.311 246.106 230.546 246.106 230.546Z" fill="#02819E"/>
<path d="M290.889 157.167C290.889 157.167 304.325 155.479 291.117 177.975L290.889 157.167Z" fill="#3A3F47"/>
<path d="M222.346 191.539L220.98 189.187L231.736 185.466L233.102 187.806L222.346 191.539Z" fill="#292C47"/>
<g opacity="0.95">
<path opacity="0.95" d="M427.529 90.7515H435.149L432.818 85.9035H425.195L427.529 90.7515Z" fill="url(#paint4_linear_313_1371)"/>
<path opacity="0.95" d="M423.964 90.7515H425.779L423.445 85.9035H421.63L423.964 90.7515Z" fill="url(#paint5_linear_313_1371)"/>
<path opacity="0.95" d="M397.632 84.9759H428.492L427.468 82.5507H396.608L397.632 84.9759Z" fill="url(#paint6_linear_313_1371)"/>
</g>
<path d="M231.898 7.65854H220.245C219.85 7.65854 219.532 7.33922 219.532 6.94388V4.4223C219.532 4.02696 219.85 3.70764 220.245 3.70764H231.898C232.293 3.70764 232.611 4.02696 232.611 4.4223V6.94388C232.609 7.33922 232.29 7.65854 231.898 7.65854Z" fill="url(#paint7_linear_313_1371)"/>
<path d="M231.898 17.1316H220.245C219.85 17.1316 219.532 16.8122 219.532 16.4169V13.8953C219.532 13.5 219.85 13.1807 220.245 13.1807H231.898C232.293 13.1807 232.611 13.5 232.611 13.8953V16.4169C232.609 16.8097 232.29 17.1316 231.898 17.1316Z" fill="url(#paint8_linear_313_1371)"/>
<path d="M231.898 26.602H220.245C219.85 26.602 219.532 26.2827 219.532 25.8874V23.3658C219.532 22.9704 219.85 22.6511 220.245 22.6511H231.898C232.293 22.6511 232.611 22.9704 232.611 23.3658V25.8874C232.609 26.2827 232.29 26.602 231.898 26.602Z" fill="url(#paint9_linear_313_1371)"/>
<path d="M241.018 7.65854H238.723C238.328 7.65854 238.01 7.33922 238.01 6.94388V4.4223C238.01 4.02696 238.328 3.70764 238.723 3.70764H241.018C241.413 3.70764 241.731 4.02696 241.731 4.4223V6.94388C241.731 7.33922 241.413 7.65854 241.018 7.65854Z" fill="url(#paint10_linear_313_1371)"/>
<path d="M241.018 17.1316H238.723C238.328 17.1316 238.01 16.8122 238.01 16.4169V13.8953C238.01 13.5 238.328 13.1807 238.723 13.1807H241.018C241.413 13.1807 241.731 13.5 241.731 13.8953V16.4169C241.731 16.8097 241.413 17.1316 241.018 17.1316Z" fill="url(#paint11_linear_313_1371)"/>
<path d="M241.018 26.602H238.723C238.328 26.602 238.01 26.2827 238.01 25.8874V23.3658C238.01 22.9704 238.328 22.6511 238.723 22.6511H241.018C241.413 22.6511 241.731 22.9704 241.731 23.3658V25.8874C241.731 26.2827 241.413 26.602 241.018 26.602Z" fill="url(#paint12_linear_313_1371)"/>
<path d="M190.386 220.981H204.068L199.881 212.276H186.199L190.386 220.981Z" fill="url(#paint13_linear_313_1371)"/>
<path d="M183.987 220.981H187.246L183.059 212.276H179.8L183.987 220.981Z" fill="url(#paint14_linear_313_1371)"/>
<defs>
<linearGradient id="paint0_linear_313_1371" x1="195.079" y1="298.824" x2="184.617" y2="109.63" gradientUnits="userSpaceOnUse">
<stop stop-color="#D1D7E0"/>
<stop offset="1" stop-color="#EBEBFF"/>
</linearGradient>
<linearGradient id="paint1_linear_313_1371" x1="365.44" y1="351.57" x2="365.44" y2="156.789" gradientUnits="userSpaceOnUse">
<stop stop-color="#D1D7E0"/>
<stop offset="1" stop-color="#EBEBFF"/>
</linearGradient>
<linearGradient id="paint2_linear_313_1371" x1="185.554" y1="231.289" x2="185.554" y2="88.8635" gradientUnits="userSpaceOnUse">
<stop stop-color="#D1D7E0"/>
<stop offset="1" stop-color="#EBEBFF"/>
</linearGradient>
<linearGradient id="paint3_linear_313_1371" x1="314.329" y1="110.88" x2="314.329" y2="30.6494" gradientUnits="userSpaceOnUse">
<stop stop-color="#D1D7E0"/>
<stop offset="1" stop-color="#EBEBFF"/>
</linearGradient>
<linearGradient id="paint4_linear_313_1371" x1="425.196" y1="88.3274" x2="435.15" y2="88.3274" gradientUnits="userSpaceOnUse">
<stop stop-color="#D1D7E0"/>
<stop offset="1" stop-color="#EBEBFF"/>
</linearGradient>
<linearGradient id="paint5_linear_313_1371" x1="421.63" y1="88.3274" x2="425.779" y2="88.3274" gradientUnits="userSpaceOnUse">
<stop stop-color="#D1D7E0"/>
<stop offset="1" stop-color="#EBEBFF"/>
</linearGradient>
<linearGradient id="paint6_linear_313_1371" x1="396.607" y1="83.7642" x2="428.492" y2="83.7642" gradientUnits="userSpaceOnUse">
<stop stop-color="#D1D7E0"/>
<stop offset="1" stop-color="#EBEBFF"/>
</linearGradient>
<linearGradient id="paint7_linear_313_1371" x1="219.533" y1="5.68337" x2="232.61" y2="5.68337" gradientUnits="userSpaceOnUse">
<stop stop-color="#D1D7E0"/>
<stop offset="1" stop-color="#EBEBFF"/>
</linearGradient>
<linearGradient id="paint8_linear_313_1371" x1="219.533" y1="15.1553" x2="232.61" y2="15.1553" gradientUnits="userSpaceOnUse">
<stop stop-color="#D1D7E0"/>
<stop offset="1" stop-color="#EBEBFF"/>
</linearGradient>
<linearGradient id="paint9_linear_313_1371" x1="219.533" y1="24.6275" x2="232.61" y2="24.6275" gradientUnits="userSpaceOnUse">
<stop stop-color="#D1D7E0"/>
<stop offset="1" stop-color="#EBEBFF"/>
</linearGradient>
<linearGradient id="paint10_linear_313_1371" x1="238.01" y1="5.68337" x2="241.73" y2="5.68337" gradientUnits="userSpaceOnUse">
<stop stop-color="#D1D7E0"/>
<stop offset="1" stop-color="#EBEBFF"/>
</linearGradient>
<linearGradient id="paint11_linear_313_1371" x1="238.01" y1="15.1553" x2="241.73" y2="15.1553" gradientUnits="userSpaceOnUse">
<stop stop-color="#D1D7E0"/>
<stop offset="1" stop-color="#EBEBFF"/>
</linearGradient>
<linearGradient id="paint12_linear_313_1371" x1="238.01" y1="24.6275" x2="241.73" y2="24.6275" gradientUnits="userSpaceOnUse">
<stop stop-color="#D1D7E0"/>
<stop offset="1" stop-color="#EBEBFF"/>
</linearGradient>
<linearGradient id="paint13_linear_313_1371" x1="186.2" y1="216.628" x2="204.068" y2="216.628" gradientUnits="userSpaceOnUse">
<stop stop-color="#D1D7E0"/>
<stop offset="1" stop-color="#EBEBFF"/>
</linearGradient>
<linearGradient id="paint14_linear_313_1371" x1="179.799" y1="216.628" x2="187.246" y2="216.628" gradientUnits="userSpaceOnUse">
<stop stop-color="#D1D7E0"/>
<stop offset="1" stop-color="#EBEBFF"/>
</linearGradient>
</defs>
</svg>
